<?xml version="1.0" encoding="UTF-8" standalone="no"?>
<svg xmlns="http://www.w3.org/2000/svg" width="200" height="60" viewBox="0 0 200 60" fill="none">
  <style>
    .text-primary { fill: #4F46E5; }
    .text-secondary { fill: #4338CA; }
    .accent { fill: #6366F1; }
  </style>
  
  <!-- Icon component -->
  <g transform="translate(10, 13)">
    <path class="accent" d="M18 0C8.059 0 0 8.059 0 18s8.059 18 18 18 18-8.059 18-18S27.941 0 18 0z" opacity="0.2"/>
    <path class="text-primary" d="M27 22.5a9 9 0 01-18 0c0-4.971 4.029-9 9-9s9 4.029 9 9z"/>
    <path class="text-secondary" d="M24 14.5a6 6 0 11-12 0 6 6 0 0112 0z" opacity="0.8"/>
    <path fill="white" d="M21 14.5a3 3 0 11-6 0 3 3 0 016 0z"/>
    <rect class="text-primary" x="2" y="10" width="32" height="2" rx="1"/>
    <rect class="text-primary" x="5" y="6" width="26" height="2" rx="1"/>
    <rect class="text-primary" x="5" y="28" width="26" height="2" rx="1"/>
    <rect class="text-primary" x="2" y="24" width="32" height="2" rx="1"/>
  </g>
  
  <!-- Text Component -->
  <g transform="translate(48, 25)">
    <path class="text-primary" d="M0 0H7V3H3V6H7V9H3V15H0V0Z" />
    <path class="text-primary" d="M9 0H16V3H12V6H16V9H12V12H16V15H9V0Z" />
    <path class="text-primary" d="M18 0H21V12H27V15H18V0Z" />
    <path class="text-primary" d="M29 0H38V3H32V6H37V9H32V15H29V0Z" />
  </g>
  
  <!-- Learning Platform text -->
  <g transform="translate(50, 45)">
    <text font-family="Arial, sans-serif" font-size="10" class="text-secondary">
      Learning Platform
    </text>
  </g>
</svg> 